<svg width="223" height="215" viewBox="0 0 223 215" fill="none" xmlns="http://www.w3.org/2000/svg">
<path d="M222.5 107.5C222.5 166.577 172.821 214.5 111.5 214.5C50.179 214.5 0.5 166.577 0.5 107.5C0.5 48.4226 50.179 0.5 111.5 0.5C172.821 0.5 222.5 48.4226 222.5 107.5Z" fill="#4472C3" stroke="black"/>
<path d="M198.5 127.5C198.5 175.551 159.77 214.5 112 214.5C64.2301 214.5 25.5 175.551 25.5 127.5C25.5 79.4485 64.2301 40.5 112 40.5C159.77 40.5 198.5 79.4485 198.5 127.5Z" fill="#009092" stroke="#7CBFC0"/>
<path d="M171.5 153C171.5 186.977 144.626 214.5 111.5 214.5C78.3744 214.5 51.5 186.977 51.5 153C51.5 119.023 78.3744 91.5 111.5 91.5C144.626 91.5 171.5 119.023 171.5 153Z" fill="#FF9200" stroke="#6C4EBF"/>
<path d="M52.7585 32V23.2727H54.6037V27.1207H54.7188L57.8594 23.2727H60.071L56.8324 27.1804L60.1094 32H57.902L55.5114 28.4119L54.6037 29.5199V32H52.7585ZM64.7852 29.2131V25.4545H66.6005V32H64.8576V30.8111H64.7894C64.6417 31.1946 64.396 31.5028 64.0522 31.7358C63.7113 31.9687 63.2951 32.0852 62.8036 32.0852C62.3661 32.0852 61.9812 31.9858 61.6488 31.7869C61.3164 31.5881 61.0565 31.3054 60.869 30.9389C60.6843 30.5724 60.5906 30.1335 60.5877 29.6222V25.4545H62.4031V29.2983C62.4059 29.6847 62.5096 29.9901 62.7141 30.2145C62.9187 30.4389 63.1928 30.5511 63.5366 30.5511C63.7553 30.5511 63.9599 30.5014 64.1502 30.402C64.3406 30.2997 64.494 30.1491 64.6104 29.9503C64.7298 29.7514 64.788 29.5057 64.7852 29.2131ZM62.305 24.5597C62.0607 24.5597 61.8505 24.4744 61.6744 24.304C61.4982 24.1307 61.4102 23.9261 61.4102 23.6903C61.4102 23.4489 61.4982 23.2443 61.6744 23.0767C61.8505 22.9091 62.0607 22.8253 62.305 22.8253C62.5522 22.8253 62.761 22.9091 62.9315 23.0767C63.1048 23.2443 63.1914 23.4489 63.1914 23.6903C63.1914 23.9261 63.1048 24.1307 62.9315 24.304C62.761 24.4744 62.5522 24.5597 62.305 24.5597ZM64.913 24.5597C64.6687 24.5597 64.4585 24.4744 64.2823 24.304C64.1062 24.1307 64.0181 23.9261 64.0181 23.6903C64.0181 23.4489 64.1062 23.2443 64.2823 23.0767C64.4585 22.9091 64.6687 22.8253 64.913 22.8253C65.1602 22.8253 65.369 22.9091 65.5394 23.0767C65.7127 23.2443 65.7994 23.4489 65.7994 23.6903C65.7994 23.9261 65.7127 24.1307 65.5394 24.304C65.369 24.4744 65.1602 24.5597 64.913 24.5597ZM69.8679 28.2159V32H68.0526V25.4545H69.7827V26.6094H69.8594C70.0043 26.2287 70.2472 25.9276 70.5881 25.706C70.929 25.4815 71.3423 25.3693 71.8281 25.3693C72.2827 25.3693 72.679 25.4688 73.017 25.6676C73.3551 25.8665 73.6179 26.1506 73.8054 26.5199C73.9929 26.8864 74.0866 27.3239 74.0866 27.8324V32H72.2713V28.1562C72.2741 27.7557 72.1719 27.4432 71.9645 27.2188C71.7571 26.9915 71.4716 26.8778 71.108 26.8778C70.8636 26.8778 70.6477 26.9304 70.4602 27.0355C70.2756 27.1406 70.1307 27.294 70.0256 27.4957C69.9233 27.6946 69.8707 27.9347 69.8679 28.2159ZM80.9634 27.321L79.3015 27.4233C79.2731 27.2812 79.212 27.1534 79.1183 27.0398C79.0245 26.9233 78.9009 26.831 78.7475 26.7628C78.5969 26.6918 78.4165 26.6562 78.2063 26.6562C77.9251 26.6562 77.6879 26.7159 77.4947 26.8352C77.3015 26.9517 77.2049 27.108 77.2049 27.304C77.2049 27.4602 77.2674 27.5923 77.3924 27.7003C77.5174 27.8082 77.7319 27.8949 78.0359 27.9602L79.2205 28.1989C79.8569 28.3295 80.3313 28.5398 80.6438 28.8295C80.9563 29.1193 81.1126 29.5 81.1126 29.9716C81.1126 30.4006 80.9862 30.777 80.7333 31.1009C80.4833 31.4247 80.1396 31.6776 79.7021 31.8594C79.2674 32.0384 78.766 32.1278 78.1978 32.1278C77.3313 32.1278 76.641 31.9474 76.1268 31.5866C75.6154 31.223 75.3157 30.7287 75.2276 30.1037L77.0131 30.0099C77.0671 30.2741 77.1978 30.4759 77.4052 30.6151C77.6126 30.7514 77.8782 30.8196 78.2021 30.8196C78.5202 30.8196 78.7759 30.7585 78.9691 30.6364C79.1651 30.5114 79.2646 30.3509 79.2674 30.1548C79.2646 29.9901 79.195 29.8551 79.0586 29.75C78.9222 29.642 78.712 29.5597 78.4279 29.5028L77.2944 29.277C76.6552 29.1491 76.1793 28.9276 75.8668 28.6122C75.5572 28.2969 75.4023 27.8949 75.4023 27.4062C75.4023 26.9858 75.516 26.6236 75.7433 26.3196C75.9734 26.0156 76.2958 25.7812 76.7106 25.6165C77.1282 25.4517 77.6168 25.3693 78.1765 25.3693C79.0032 25.3693 79.6538 25.544 80.1282 25.8935C80.6055 26.2429 80.8839 26.7187 80.9634 27.321ZM85.7372 25.4545V26.8182H81.7955V25.4545H85.7372ZM82.6903 23.8864H84.5057V29.9886C84.5057 30.1562 84.5313 30.2869 84.5824 30.3807C84.6335 30.4716 84.7045 30.5355 84.7955 30.5724C84.8892 30.6094 84.9972 30.6278 85.1193 30.6278C85.2045 30.6278 85.2898 30.6207 85.375 30.6065C85.4602 30.5895 85.5256 30.5767 85.571 30.5682L85.8565 31.919C85.7656 31.9474 85.6378 31.9801 85.473 32.017C85.3082 32.0568 85.108 32.081 84.8722 32.0895C84.4347 32.1065 84.0511 32.0483 83.7216 31.9148C83.3949 31.7812 83.1406 31.5739 82.9588 31.2926C82.777 31.0114 82.6875 30.6562 82.6903 30.2273V23.8864ZM88.8757 23.2727V32H87.0604V23.2727H88.8757ZM90.3299 32V25.4545H92.1452V32H90.3299ZM91.2418 24.6108C90.9719 24.6108 90.7404 24.5213 90.5472 24.3423C90.3569 24.1605 90.2617 23.9432 90.2617 23.6903C90.2617 23.4403 90.3569 23.2259 90.5472 23.0469C90.7404 22.8651 90.9719 22.7741 91.2418 22.7741C91.5117 22.7741 91.7418 22.8651 91.9322 23.0469C92.1254 23.2259 92.2219 23.4403 92.2219 23.6903C92.2219 23.9432 92.1254 24.1605 91.9322 24.3423C91.7418 24.5213 91.5117 24.6108 91.2418 24.6108ZM96.5568 32.1278C95.8864 32.1278 95.3097 31.9858 94.8267 31.7017C94.3466 31.4148 93.9773 31.017 93.7188 30.5085C93.4631 30 93.3352 29.4148 93.3352 28.7528C93.3352 28.0824 93.4645 27.4943 93.723 26.9886C93.9844 26.4801 94.3551 26.0838 94.8352 25.7997C95.3153 25.5128 95.8864 25.3693 96.5483 25.3693C97.1193 25.3693 97.6193 25.473 98.0483 25.6804C98.4773 25.8878 98.8168 26.179 99.0668 26.554C99.3168 26.929 99.4545 27.3693 99.4801 27.875H97.767C97.7188 27.5483 97.5909 27.2855 97.3835 27.0866C97.179 26.8849 96.9105 26.7841 96.5781 26.7841C96.2969 26.7841 96.0511 26.8608 95.8409 27.0142C95.6335 27.1648 95.4716 27.3849 95.3551 27.6747C95.2386 27.9645 95.1804 28.3153 95.1804 28.7273C95.1804 29.1449 95.2372 29.5 95.3509 29.7926C95.4673 30.0852 95.6307 30.3082 95.8409 30.4616C96.0511 30.6151 96.2969 30.6918 96.5781 30.6918C96.7855 30.6918 96.9716 30.6491 97.1364 30.5639C97.304 30.4787 97.4418 30.3551 97.5497 30.1932C97.6605 30.0284 97.733 29.831 97.767 29.6009H99.4801C99.4517 30.1009 99.3153 30.5412 99.071 30.9219C98.8295 31.2997 98.4957 31.5952 98.0696 31.8082C97.6435 32.0213 97.1392 32.1278 96.5568 32.1278ZM102.458 28.2159V32H100.642V23.2727H102.407V26.6094H102.483C102.631 26.223 102.87 25.9205 103.199 25.7017C103.529 25.4801 103.942 25.3693 104.439 25.3693C104.894 25.3693 105.29 25.4688 105.628 25.6676C105.969 25.8636 106.233 26.1463 106.421 26.5156C106.611 26.8821 106.705 27.321 106.702 27.8324V32H104.887V28.1562C104.89 27.7528 104.787 27.4389 104.58 27.2145C104.375 26.9901 104.088 26.8778 103.719 26.8778C103.472 26.8778 103.253 26.9304 103.063 27.0355C102.875 27.1406 102.728 27.294 102.62 27.4957C102.515 27.6946 102.461 27.9347 102.458 28.2159ZM111.114 32.1278C110.44 32.1278 109.861 31.9915 109.375 31.7188C108.892 31.4432 108.52 31.054 108.259 30.5511C107.997 30.0455 107.866 29.4474 107.866 28.7571C107.866 28.0838 107.997 27.4929 108.259 26.9844C108.52 26.4759 108.888 26.0795 109.362 25.7955C109.839 25.5114 110.399 25.3693 111.041 25.3693C111.473 25.3693 111.875 25.4389 112.247 25.5781C112.622 25.7145 112.949 25.9205 113.227 26.196C113.509 26.4716 113.727 26.8182 113.884 27.2358C114.04 27.6506 114.118 28.1364 114.118 28.6932V29.1918H108.591V28.0668H112.409C112.409 27.8054 112.352 27.5739 112.239 27.3722C112.125 27.1705 111.967 27.0128 111.766 26.8991C111.567 26.7827 111.335 26.7244 111.071 26.7244C110.795 26.7244 110.551 26.7884 110.338 26.9162C110.128 27.0412 109.963 27.2102 109.844 27.4233C109.724 27.6335 109.663 27.8679 109.661 28.1264V29.196C109.661 29.5199 109.72 29.7997 109.839 30.0355C109.962 30.2713 110.134 30.4531 110.355 30.581C110.577 30.7088 110.839 30.7727 111.143 30.7727C111.345 30.7727 111.53 30.7443 111.697 30.6875C111.865 30.6307 112.009 30.5455 112.128 30.4318C112.247 30.3182 112.338 30.179 112.401 30.0142L114.08 30.125C113.994 30.5284 113.82 30.8807 113.555 31.1818C113.294 31.4801 112.956 31.7131 112.541 31.8807C112.129 32.0455 111.653 32.1278 111.114 32.1278ZM119.959 23.2727V32H118.114V23.2727H119.959ZM123.259 28.2159V32H121.443V25.4545H123.173V26.6094H123.25C123.395 26.2287 123.638 25.9276 123.979 25.706C124.32 25.4815 124.733 25.3693 125.219 25.3693C125.673 25.3693 126.07 25.4688 126.408 25.6676C126.746 25.8665 127.009 26.1506 127.196 26.5199C127.384 26.8864 127.477 27.3239 127.477 27.8324V32H125.662V28.1562C125.665 27.7557 125.563 27.4432 125.355 27.2188C125.148 26.9915 124.862 26.8778 124.499 26.8778C124.254 26.8778 124.038 26.9304 123.851 27.0355C123.666 27.1406 123.521 27.294 123.416 27.4957C123.314 27.6946 123.261 27.9347 123.259 28.2159ZM132.39 25.4545V26.8182H128.448V25.4545H132.39ZM129.343 23.8864H131.158V29.9886C131.158 30.1562 131.184 30.2869 131.235 30.3807C131.286 30.4716 131.357 30.5355 131.448 30.5724C131.542 30.6094 131.65 30.6278 131.772 30.6278C131.857 30.6278 131.942 30.6207 132.027 30.6065C132.113 30.5895 132.178 30.5767 132.223 30.5682L132.509 31.919C132.418 31.9474 132.29 31.9801 132.125 32.017C131.961 32.0568 131.76 32.081 131.525 32.0895C131.087 32.1065 130.703 32.0483 130.374 31.9148C130.047 31.7812 129.793 31.5739 129.611 31.2926C129.429 31.0114 129.34 30.6562 129.343 30.2273V23.8864ZM136.485 32.1278C135.811 32.1278 135.232 31.9915 134.746 31.7188C134.263 31.4432 133.891 31.054 133.63 30.5511C133.368 30.0455 133.238 29.4474 133.238 28.7571C133.238 28.0838 133.368 27.4929 133.63 26.9844C133.891 26.4759 134.259 26.0795 134.733 25.7955C135.211 25.5114 135.77 25.3693 136.412 25.3693C136.844 25.3693 137.246 25.4389 137.618 25.5781C137.993 25.7145 138.32 25.9205 138.598 26.196C138.88 26.4716 139.098 26.8182 139.255 27.2358C139.411 27.6506 139.489 28.1364 139.489 28.6932V29.1918H133.962V28.0668H137.78C137.78 27.8054 137.723 27.5739 137.61 27.3722C137.496 27.1705 137.338 27.0128 137.137 26.8991C136.938 26.7827 136.706 26.7244 136.442 26.7244C136.167 26.7244 135.922 26.7884 135.709 26.9162C135.499 27.0412 135.334 27.2102 135.215 27.4233C135.096 27.6335 135.034 27.8679 135.032 28.1264V29.196C135.032 29.5199 135.091 29.7997 135.211 30.0355C135.333 30.2713 135.505 30.4531 135.726 30.581C135.948 30.7088 136.211 30.7727 136.515 30.7727C136.716 30.7727 136.901 30.7443 137.069 30.6875C137.236 30.6307 137.38 30.5455 137.499 30.4318C137.618 30.3182 137.709 30.179 137.772 30.0142L139.451 30.125C139.365 30.5284 139.191 30.8807 138.926 31.1818C138.665 31.4801 138.327 31.7131 137.912 31.8807C137.5 32.0455 137.025 32.1278 136.485 32.1278ZM142.489 23.2727V32H140.674V23.2727H142.489ZM145.759 23.2727V32H143.943V23.2727H145.759ZM147.213 32V25.4545H149.028V32H147.213ZM148.125 24.6108C147.855 24.6108 147.623 24.5213 147.43 24.3423C147.24 24.1605 147.145 23.9432 147.145 23.6903C147.145 23.4403 147.24 23.2259 147.43 23.0469C147.623 22.8651 147.855 22.7741 148.125 22.7741C148.395 22.7741 148.625 22.8651 148.815 23.0469C149.008 23.2259 149.105 23.4403 149.105 23.6903C149.105 23.9432 149.008 24.1605 148.815 24.3423C148.625 24.5213 148.395 24.6108 148.125 24.6108ZM153.431 34.5909C152.843 34.5909 152.339 34.5099 151.918 34.348C151.501 34.1889 151.168 33.9716 150.921 33.696C150.674 33.4205 150.513 33.1108 150.44 32.767L152.119 32.5412C152.17 32.6719 152.251 32.794 152.362 32.9077C152.472 33.0213 152.619 33.1122 152.8 33.1804C152.985 33.2514 153.21 33.2869 153.474 33.2869C153.869 33.2869 154.194 33.1903 154.45 32.9972C154.708 32.8068 154.837 32.4872 154.837 32.0384V30.8409H154.761C154.681 31.0227 154.562 31.1946 154.403 31.3565C154.244 31.5185 154.039 31.6506 153.789 31.7528C153.539 31.8551 153.241 31.9062 152.894 31.9062C152.403 31.9062 151.955 31.7926 151.552 31.5653C151.151 31.3352 150.832 30.9844 150.593 30.5128C150.357 30.0384 150.239 29.4389 150.239 28.7145C150.239 27.973 150.36 27.3537 150.602 26.8565C150.843 26.3594 151.164 25.9872 151.565 25.7401C151.968 25.4929 152.41 25.3693 152.89 25.3693C153.256 25.3693 153.563 25.4318 153.81 25.5568C154.058 25.679 154.256 25.8324 154.407 26.017C154.56 26.1989 154.678 26.3778 154.761 26.554H154.829V25.4545H156.631V32.0639C156.631 32.6207 156.495 33.0866 156.222 33.4616C155.95 33.8366 155.572 34.1179 155.089 34.3054C154.609 34.4957 154.056 34.5909 153.431 34.5909ZM153.469 30.5426C153.762 30.5426 154.009 30.4702 154.211 30.3253C154.415 30.1776 154.572 29.9673 154.68 29.6946C154.79 29.419 154.846 29.0895 154.846 28.706C154.846 28.3224 154.792 27.9901 154.684 27.7088C154.576 27.4247 154.42 27.2045 154.215 27.0483C154.011 26.892 153.762 26.8139 153.469 26.8139C153.171 26.8139 152.92 26.8949 152.715 27.0568C152.511 27.2159 152.356 27.4375 152.251 27.7216C152.146 28.0057 152.093 28.3338 152.093 28.706C152.093 29.0838 152.146 29.4105 152.251 29.6861C152.359 29.9588 152.513 30.1705 152.715 30.321C152.92 30.4687 153.171 30.5426 153.469 30.5426ZM161.059 32.1278C160.386 32.1278 159.806 31.9915 159.32 31.7188C158.837 31.4432 158.465 31.054 158.204 30.5511C157.942 30.0455 157.812 29.4474 157.812 28.7571C157.812 28.0838 157.942 27.4929 158.204 26.9844C158.465 26.4759 158.833 26.0795 159.308 25.7955C159.785 25.5114 160.344 25.3693 160.987 25.3693C161.418 25.3693 161.82 25.4389 162.192 25.5781C162.567 25.7145 162.894 25.9205 163.173 26.196C163.454 26.4716 163.673 26.8182 163.829 27.2358C163.985 27.6506 164.063 28.1364 164.063 28.6932V29.1918H158.536V28.0668H162.354C162.354 27.8054 162.298 27.5739 162.184 27.3722C162.07 27.1705 161.913 27.0128 161.711 26.8991C161.512 26.7827 161.281 26.7244 161.016 26.7244C160.741 26.7244 160.496 26.7884 160.283 26.9162C160.073 27.0412 159.908 27.2102 159.789 27.4233C159.67 27.6335 159.609 27.8679 159.606 28.1264V29.196C159.606 29.5199 159.665 29.7997 159.785 30.0355C159.907 30.2713 160.079 30.4531 160.3 30.581C160.522 30.7088 160.785 30.7727 161.089 30.7727C161.29 30.7727 161.475 30.7443 161.643 30.6875C161.81 30.6307 161.954 30.5455 162.073 30.4318C162.192 30.3182 162.283 30.179 162.346 30.0142L164.025 30.125C163.94 30.5284 163.765 30.8807 163.501 31.1818C163.239 31.4801 162.901 31.7131 162.487 31.8807C162.075 32.0455 161.599 32.1278 161.059 32.1278ZM167.063 28.2159V32H165.248V25.4545H166.978V26.6094H167.055C167.2 26.2287 167.442 25.9276 167.783 25.706C168.124 25.4815 168.538 25.3693 169.023 25.3693C169.478 25.3693 169.874 25.4688 170.212 25.6676C170.55 25.8665 170.813 26.1506 171.001 26.5199C171.188 26.8864 171.282 27.3239 171.282 27.8324V32H169.467V28.1562C169.469 27.7557 169.367 27.4432 169.16 27.2188C168.952 26.9915 168.667 26.8778 168.303 26.8778C168.059 26.8778 167.843 26.9304 167.656 27.0355C167.471 27.1406 167.326 27.294 167.221 27.4957C167.119 27.6946 167.066 27.9347 167.063 28.2159ZM172.679 32V30.9176L175.883 26.9503V26.9034H172.789V25.4545H178.069V26.6349L175.061 30.5043V30.5511H178.18V32H172.679Z" fill="#F5F5F5"/>
<path d="M50.7585 73.2727H53.0341L55.4375 79.1364H55.5398L57.9432 73.2727H60.2188V82H58.429V76.3196H58.3565L56.098 81.9574H54.8793L52.6207 76.2983H52.5483V82H50.7585V73.2727ZM63.5714 82.1236C63.1538 82.1236 62.7816 82.0511 62.4549 81.9062C62.1282 81.7585 61.8697 81.5412 61.6793 81.2543C61.4918 80.9645 61.3981 80.6037 61.3981 80.1719C61.3981 79.8082 61.4648 79.5028 61.5984 79.2557C61.7319 79.0085 61.9137 78.8097 62.1438 78.6591C62.3739 78.5085 62.6353 78.3949 62.9279 78.3182C63.2234 78.2415 63.533 78.1875 63.8569 78.1562C64.2376 78.1165 64.5444 78.0795 64.7773 78.0455C65.0103 78.0085 65.1793 77.9545 65.2844 77.8835C65.3896 77.8125 65.4421 77.7074 65.4421 77.5682V77.5426C65.4421 77.2727 65.3569 77.0639 65.1864 76.9162C65.0188 76.7685 64.7802 76.6946 64.4705 76.6946C64.1438 76.6946 63.8839 76.767 63.6907 76.9119C63.4975 77.054 63.3697 77.233 63.3072 77.4489L61.6282 77.3125C61.7134 76.9148 61.881 76.571 62.131 76.2812C62.381 75.9886 62.7035 75.7642 63.0984 75.608C63.4961 75.4489 63.9563 75.3693 64.479 75.3693C64.8427 75.3693 65.1907 75.4119 65.5231 75.4972C65.8583 75.5824 66.1552 75.7145 66.4137 75.8935C66.6751 76.0724 66.881 76.3026 67.0316 76.5838C67.1822 76.8622 67.2575 77.196 67.2575 77.5852V82H65.5359V81.0923H65.4847C65.3796 81.2969 65.239 81.4773 65.0629 81.6335C64.8867 81.7869 64.6751 81.9077 64.4279 81.9957C64.1808 82.081 63.8952 82.1236 63.5714 82.1236ZM64.0913 80.8707C64.3583 80.8707 64.5941 80.8182 64.7987 80.7131C65.0032 80.6051 65.1637 80.4602 65.2802 80.2784C65.3967 80.0966 65.4549 79.8906 65.4549 79.6605V78.9659C65.3981 79.0028 65.32 79.0369 65.2205 79.0682C65.1239 79.0966 65.0146 79.1236 64.8924 79.1491C64.7702 79.1719 64.6481 79.1932 64.5259 79.2131C64.4038 79.2301 64.293 79.2457 64.1935 79.2599C63.9805 79.2912 63.7944 79.3409 63.6353 79.4091C63.4762 79.4773 63.3526 79.5696 63.2646 79.6861C63.1765 79.7997 63.1325 79.9418 63.1325 80.1122C63.1325 80.3594 63.2219 80.5483 63.4009 80.679C63.5827 80.8068 63.8129 80.8707 64.0913 80.8707ZM74.1119 77.321L72.4499 77.4233C72.4215 77.2812 72.3604 77.1534 72.2667 77.0398C72.1729 76.9233 72.0494 76.831 71.896 76.7628C71.7454 76.6918 71.565 76.6562 71.3548 76.6562C71.0735 76.6562 70.8363 76.7159 70.6431 76.8352C70.4499 76.9517 70.3533 77.108 70.3533 77.304C70.3533 77.4602 70.4158 77.5923 70.5408 77.7003C70.6658 77.8082 70.8803 77.8949 71.1843 77.9602L72.369 78.1989C73.0053 78.3295 73.4798 78.5398 73.7923 78.8295C74.1048 79.1193 74.261 79.5 74.261 79.9716C74.261 80.4006 74.1346 80.777 73.8817 81.1009C73.6317 81.4247 73.288 81.6776 72.8505 81.8594C72.4158 82.0384 71.9144 82.1278 71.3462 82.1278C70.4798 82.1278 69.7894 81.9474 69.2752 81.5866C68.7638 81.223 68.4641 80.7287 68.3761 80.1037L70.1616 80.0099C70.2156 80.2741 70.3462 80.4759 70.5536 80.6151C70.761 80.7514 71.0266 80.8196 71.3505 80.8196C71.6687 80.8196 71.9244 80.7585 72.1175 80.6364C72.3136 80.5114 72.413 80.3509 72.4158 80.1548C72.413 79.9901 72.3434 79.8551 72.207 79.75C72.0707 79.642 71.8604 79.5597 71.5763 79.5028L70.4428 79.277C69.8036 79.1491 69.3278 78.9276 69.0153 78.6122C68.7056 78.2969 68.5508 77.8949 68.5508 77.4062C68.5508 76.9858 68.6644 76.6236 68.8917 76.3196C69.1218 76.0156 69.4442 75.7812 69.859 75.6165C70.2766 75.4517 70.7653 75.3693 71.3249 75.3693C72.1516 75.3693 72.8022 75.544 73.2766 75.8935C73.7539 76.2429 74.0323 76.7187 74.1119 77.321ZM78.3615 82.1278C77.6911 82.1278 77.1143 81.9858 76.6314 81.7017C76.1513 81.4148 75.782 81.017 75.5234 80.5085C75.2678 80 75.1399 79.4148 75.1399 78.7528C75.1399 78.0824 75.2692 77.4943 75.5277 76.9886C75.7891 76.4801 76.1598 76.0838 76.6399 75.7997C77.12 75.5128 77.6911 75.3693 78.353 75.3693C78.924 75.3693 79.424 75.473 79.853 75.6804C80.282 75.8878 80.6214 76.179 80.8714 76.554C81.1214 76.929 81.2592 77.3693 81.2848 77.875H79.5717C79.5234 77.5483 79.3956 77.2855 79.1882 77.0866C78.9837 76.8849 78.7152 76.7841 78.3828 76.7841C78.1016 76.7841 77.8558 76.8608 77.6456 77.0142C77.4382 77.1648 77.2763 77.3849 77.1598 77.6747C77.0433 77.9645 76.9851 78.3153 76.9851 78.7273C76.9851 79.1449 77.0419 79.5 77.1555 79.7926C77.272 80.0852 77.4354 80.3082 77.6456 80.4616C77.8558 80.6151 78.1016 80.6918 78.3828 80.6918C78.5902 80.6918 78.7763 80.6491 78.9411 80.5639C79.1087 80.4787 79.2464 80.3551 79.3544 80.1932C79.4652 80.0284 79.5376 79.831 79.5717 79.6009H81.2848C81.2564 80.1009 81.12 80.5412 80.8757 80.9219C80.6342 81.2997 80.3004 81.5952 79.8743 81.8082C79.4482 82.0213 78.9439 82.1278 78.3615 82.1278ZM84.2624 78.2159V82H82.4471V73.2727H84.2113V76.6094H84.288C84.4357 76.223 84.6744 75.9205 85.0039 75.7017C85.3335 75.4801 85.7468 75.3693 86.244 75.3693C86.6985 75.3693 87.0948 75.4688 87.4329 75.6676C87.7738 75.8636 88.038 76.1463 88.2255 76.5156C88.4158 76.8821 88.5096 77.321 88.5067 77.8324V82H86.6914V78.1562C86.6942 77.7528 86.592 77.4389 86.3846 77.2145C86.18 76.9901 85.8931 76.8778 85.5238 76.8778C85.2766 76.8778 85.0579 76.9304 84.8675 77.0355C84.68 77.1406 84.5323 77.294 84.4244 77.4957C84.3192 77.6946 84.2653 77.9347 84.2624 78.2159ZM89.9354 82V75.4545H91.7507V82H89.9354ZM90.8473 74.6108C90.5774 74.6108 90.3459 74.5213 90.1527 74.3423C89.9624 74.1605 89.8672 73.9432 89.8672 73.6903C89.8672 73.4403 89.9624 73.2259 90.1527 73.0469C90.3459 72.8651 90.5774 72.7741 90.8473 72.7741C91.1172 72.7741 91.3473 72.8651 91.5376 73.0469C91.7308 73.2259 91.8274 73.4403 91.8274 73.6903C91.8274 73.9432 91.7308 74.1605 91.5376 74.3423C91.3473 74.5213 91.1172 74.6108 90.8473 74.6108ZM95.0202 78.2159V82H93.2049V75.4545H94.935V76.6094H95.0117C95.1566 76.2287 95.3995 75.9276 95.7404 75.706C96.0813 75.4815 96.4947 75.3693 96.9805 75.3693C97.435 75.3693 97.8313 75.4688 98.1694 75.6676C98.5075 75.8665 98.7702 76.1506 98.9577 76.5199C99.1452 76.8864 99.239 77.3239 99.239 77.8324V82H97.4237V78.1562C97.4265 77.7557 97.3242 77.4432 97.1168 77.2188C96.9094 76.9915 96.6239 76.8778 96.2603 76.8778C96.016 76.8778 95.8001 76.9304 95.6126 77.0355C95.4279 77.1406 95.283 77.294 95.1779 77.4957C95.0756 77.6946 95.0231 77.9347 95.0202 78.2159ZM103.653 82.1278C102.979 82.1278 102.4 81.9915 101.914 81.7188C101.431 81.4432 101.059 81.054 100.798 80.5511C100.536 80.0455 100.406 79.4474 100.406 78.7571C100.406 78.0838 100.536 77.4929 100.798 76.9844C101.059 76.4759 101.427 76.0795 101.901 75.7955C102.379 75.5114 102.938 75.3693 103.58 75.3693C104.012 75.3693 104.414 75.4389 104.786 75.5781C105.161 75.7145 105.488 75.9205 105.766 76.196C106.048 76.4716 106.266 76.8182 106.423 77.2358C106.579 77.6506 106.657 78.1364 106.657 78.6932V79.1918H101.13V78.0668H104.948C104.948 77.8054 104.891 77.5739 104.778 77.3722C104.664 77.1705 104.506 77.0128 104.305 76.8991C104.106 76.7827 103.874 76.7244 103.61 76.7244C103.335 76.7244 103.09 76.7884 102.877 76.9162C102.667 77.0412 102.502 77.2102 102.383 77.4233C102.263 77.6335 102.202 77.8679 102.2 78.1264V79.196C102.2 79.5199 102.259 79.7997 102.379 80.0355C102.501 80.2713 102.673 80.4531 102.894 80.581C103.116 80.7088 103.379 80.7727 103.683 80.7727C103.884 80.7727 104.069 80.7443 104.237 80.6875C104.404 80.6307 104.548 80.5455 104.667 80.4318C104.786 80.3182 104.877 80.179 104.94 80.0142L106.619 80.125C106.533 80.5284 106.359 80.8807 106.094 81.1818C105.833 81.4801 105.495 81.7131 105.08 81.8807C104.668 82.0455 104.192 82.1278 103.653 82.1278ZM109.657 73.2727V82H107.842V73.2727H109.657ZM112.926 73.2727V82H111.111V73.2727H112.926ZM117.364 82.1278C116.69 82.1278 116.111 81.9915 115.625 81.7188C115.142 81.4432 114.77 81.054 114.509 80.5511C114.247 80.0455 114.116 79.4474 114.116 78.7571C114.116 78.0838 114.247 77.4929 114.509 76.9844C114.77 76.4759 115.138 76.0795 115.612 75.7955C116.089 75.5114 116.649 75.3693 117.291 75.3693C117.723 75.3693 118.125 75.4389 118.497 75.5781C118.872 75.7145 119.199 75.9205 119.477 76.196C119.759 76.4716 119.977 76.8182 120.134 77.2358C120.29 77.6506 120.368 78.1364 120.368 78.6932V79.1918H114.841V78.0668H118.659C118.659 77.8054 118.602 77.5739 118.489 77.3722C118.375 77.1705 118.217 77.0128 118.016 76.8991C117.817 76.7827 117.585 76.7244 117.321 76.7244C117.045 76.7244 116.801 76.7884 116.588 76.9162C116.378 77.0412 116.213 77.2102 116.094 77.4233C115.974 77.6335 115.913 77.8679 115.911 78.1264V79.196C115.911 79.5199 115.97 79.7997 116.089 80.0355C116.212 80.2713 116.384 80.4531 116.605 80.581C116.827 80.7088 117.089 80.7727 117.393 80.7727C117.595 80.7727 117.78 80.7443 117.947 80.6875C118.115 80.6307 118.259 80.5455 118.378 80.4318C118.497 80.3182 118.588 80.179 118.651 80.0142L120.33 80.125C120.244 80.5284 120.07 80.8807 119.805 81.1818C119.544 81.4801 119.206 81.7131 118.791 81.8807C118.379 82.0455 117.903 82.1278 117.364 82.1278ZM126.999 77.321L125.337 77.4233C125.308 77.2812 125.247 77.1534 125.153 77.0398C125.06 76.9233 124.936 76.831 124.783 76.7628C124.632 76.6918 124.452 76.6562 124.241 76.6562C123.96 76.6562 123.723 76.7159 123.53 76.8352C123.337 76.9517 123.24 77.108 123.24 77.304C123.24 77.4602 123.303 77.5923 123.428 77.7003C123.553 77.8082 123.767 77.8949 124.071 77.9602L125.256 78.1989C125.892 78.3295 126.366 78.5398 126.679 78.8295C126.991 79.1193 127.148 79.5 127.148 79.9716C127.148 80.4006 127.021 80.777 126.768 81.1009C126.518 81.4247 126.175 81.6776 125.737 81.8594C125.303 82.0384 124.801 82.1278 124.233 82.1278C123.366 82.1278 122.676 81.9474 122.162 81.5866C121.651 81.223 121.351 80.7287 121.263 80.1037L123.048 80.0099C123.102 80.2741 123.233 80.4759 123.44 80.6151C123.648 80.7514 123.913 80.8196 124.237 80.8196C124.555 80.8196 124.811 80.7585 125.004 80.6364C125.2 80.5114 125.3 80.3509 125.303 80.1548C125.3 79.9901 125.23 79.8551 125.094 79.75C124.957 79.642 124.747 79.5597 124.463 79.5028L123.33 79.277C122.69 79.1491 122.214 78.9276 121.902 78.6122C121.592 78.2969 121.438 77.8949 121.438 77.4062C121.438 76.9858 121.551 76.6236 121.778 76.3196C122.009 76.0156 122.331 75.7812 122.746 75.6165C123.163 75.4517 123.652 75.3693 124.212 75.3693C125.038 75.3693 125.689 75.544 126.163 75.8935C126.641 76.2429 126.919 76.7187 126.999 77.321ZM131.102 82V73.2727H132.947V80.4787H136.689V82H131.102ZM140.86 82.1278C140.186 82.1278 139.607 81.9915 139.121 81.7188C138.638 81.4432 138.266 81.054 138.005 80.5511C137.743 80.0455 137.613 79.4474 137.613 78.7571C137.613 78.0838 137.743 77.4929 138.005 76.9844C138.266 76.4759 138.634 76.0795 139.108 75.7955C139.586 75.5114 140.145 75.3693 140.787 75.3693C141.219 75.3693 141.621 75.4389 141.993 75.5781C142.368 75.7145 142.695 75.9205 142.973 76.196C143.255 76.4716 143.473 76.8182 143.63 77.2358C143.786 77.6506 143.864 78.1364 143.864 78.6932V79.1918H138.337V78.0668H142.155C142.155 77.8054 142.098 77.5739 141.985 77.3722C141.871 77.1705 141.713 77.0128 141.512 76.8991C141.313 76.7827 141.081 76.7244 140.817 76.7244C140.542 76.7244 140.297 76.7884 140.084 76.9162C139.874 77.0412 139.709 77.2102 139.59 77.4233C139.471 77.6335 139.409 77.8679 139.407 78.1264V79.196C139.407 79.5199 139.466 79.7997 139.586 80.0355C139.708 80.2713 139.88 80.4531 140.101 80.581C140.323 80.7088 140.586 80.7727 140.89 80.7727C141.091 80.7727 141.276 80.7443 141.444 80.6875C141.611 80.6307 141.755 80.5455 141.874 80.4318C141.993 80.3182 142.084 80.179 142.147 80.0142L143.826 80.125C143.74 80.5284 143.566 80.8807 143.301 81.1818C143.04 81.4801 142.702 81.7131 142.287 81.8807C141.875 82.0455 141.4 82.1278 140.86 82.1278ZM145.049 82V75.4545H146.809V76.5966H146.877C146.996 76.1903 147.196 75.8835 147.478 75.6761C147.759 75.4659 148.083 75.3608 148.449 75.3608C148.54 75.3608 148.638 75.3665 148.743 75.3778C148.848 75.3892 148.941 75.4048 149.02 75.4247V77.0355C148.935 77.0099 148.817 76.9872 148.667 76.9673C148.516 76.9474 148.378 76.9375 148.253 76.9375C147.986 76.9375 147.748 76.9957 147.537 77.1122C147.33 77.2259 147.165 77.3849 147.043 77.5895C146.924 77.794 146.864 78.0298 146.864 78.2969V82H145.049ZM151.774 78.2159V82H149.959V75.4545H151.689V76.6094H151.766C151.911 76.2287 152.153 75.9276 152.494 75.706C152.835 75.4815 153.249 75.3693 153.734 75.3693C154.189 75.3693 154.585 75.4688 154.923 75.6676C155.261 75.8665 155.524 76.1506 155.712 76.5199C155.899 76.8864 155.993 77.3239 155.993 77.8324V82H154.178V78.1562C154.18 77.7557 154.078 77.4432 153.871 77.2188C153.663 76.9915 153.378 76.8778 153.014 76.8778C152.77 76.8778 152.554 76.9304 152.366 77.0355C152.182 77.1406 152.037 77.294 151.932 77.4957C151.83 77.6946 151.777 77.9347 151.774 78.2159ZM160.407 82.1278C159.733 82.1278 159.154 81.9915 158.668 81.7188C158.185 81.4432 157.813 81.054 157.551 80.5511C157.29 80.0455 157.159 79.4474 157.159 78.7571C157.159 78.0838 157.29 77.4929 157.551 76.9844C157.813 76.4759 158.181 76.0795 158.655 75.7955C159.132 75.5114 159.692 75.3693 160.334 75.3693C160.766 75.3693 161.168 75.4389 161.54 75.5781C161.915 75.7145 162.242 75.9205 162.52 76.196C162.801 76.4716 163.02 76.8182 163.176 77.2358C163.333 77.6506 163.411 78.1364 163.411 78.6932V79.1918H157.884V78.0668H161.702C161.702 77.8054 161.645 77.5739 161.532 77.3722C161.418 77.1705 161.26 77.0128 161.059 76.8991C160.86 76.7827 160.628 76.7244 160.364 76.7244C160.088 76.7244 159.844 76.7884 159.631 76.9162C159.421 77.0412 159.256 77.2102 159.137 77.4233C159.017 77.6335 158.956 77.8679 158.953 78.1264V79.196C158.953 79.5199 159.013 79.7997 159.132 80.0355C159.255 80.2713 159.426 80.4531 159.648 80.581C159.87 80.7088 160.132 80.7727 160.436 80.7727C160.638 80.7727 160.823 80.7443 160.99 80.6875C161.158 80.6307 161.301 80.5455 161.421 80.4318C161.54 80.3182 161.631 80.179 161.694 80.0142L163.373 80.125C163.287 80.5284 163.113 80.8807 162.848 81.1818C162.587 81.4801 162.249 81.7131 161.834 81.8807C161.422 82.0455 160.946 82.1278 160.407 82.1278ZM166.411 78.2159V82H164.596V75.4545H166.326V76.6094H166.402C166.547 76.2287 166.79 75.9276 167.131 75.706C167.472 75.4815 167.885 75.3693 168.371 75.3693C168.826 75.3693 169.222 75.4688 169.56 75.6676C169.898 75.8665 170.161 76.1506 170.348 76.5199C170.536 76.8864 170.63 77.3239 170.63 77.8324V82H168.814V78.1562C168.817 77.7557 168.715 77.4432 168.507 77.2188C168.3 76.9915 168.015 76.8778 167.651 76.8778C167.407 76.8778 167.191 76.9304 167.003 77.0355C166.819 77.1406 166.674 77.294 166.569 77.4957C166.466 77.6946 166.414 77.9347 166.411 78.2159Z" fill="#F5F5F5"/>
<path d="M75.8523 154H72.7585V145.273H75.8778C76.7557 145.273 77.5114 145.447 78.1449 145.797C78.7784 146.143 79.2656 146.642 79.6065 147.293C79.9503 147.943 80.1222 148.722 80.1222 149.628C80.1222 150.537 79.9503 151.318 79.6065 151.972C79.2656 152.625 78.7756 153.126 78.1364 153.476C77.5 153.825 76.7386 154 75.8523 154ZM74.6037 152.419H75.7756C76.321 152.419 76.7798 152.322 77.152 152.129C77.527 151.933 77.8082 151.631 77.9957 151.222C78.1861 150.81 78.2812 150.278 78.2812 149.628C78.2812 148.983 78.1861 148.456 77.9957 148.047C77.8082 147.638 77.5284 147.337 77.1562 147.143C76.7841 146.95 76.3253 146.854 75.7798 146.854H74.6037V152.419ZM84.4379 154.128C83.7646 154.128 83.185 153.991 82.6992 153.719C82.2163 153.443 81.8441 153.054 81.5827 152.551C81.3214 152.045 81.1907 151.447 81.1907 150.757C81.1907 150.084 81.3214 149.493 81.5827 148.984C81.8441 148.476 82.212 148.08 82.6864 147.795C83.1637 147.511 83.7234 147.369 84.3654 147.369C84.7972 147.369 85.1992 147.439 85.5714 147.578C85.9464 147.714 86.2731 147.92 86.5515 148.196C86.8327 148.472 87.0515 148.818 87.2077 149.236C87.364 149.651 87.4421 150.136 87.4421 150.693V151.192H81.9151V150.067H85.7333C85.7333 149.805 85.6765 149.574 85.5629 149.372C85.4492 149.17 85.2915 149.013 85.0898 148.899C84.891 148.783 84.6594 148.724 84.3952 148.724C84.1197 148.724 83.8754 148.788 83.6623 148.916C83.4521 149.041 83.2873 149.21 83.168 149.423C83.0487 149.634 82.9876 149.868 82.9847 150.126V151.196C82.9847 151.52 83.0444 151.8 83.1637 152.036C83.2859 152.271 83.4577 152.453 83.6793 152.581C83.9009 152.709 84.1637 152.773 84.4677 152.773C84.6694 152.773 84.854 152.744 85.0217 152.688C85.1893 152.631 85.3327 152.545 85.4521 152.432C85.5714 152.318 85.6623 152.179 85.7248 152.014L87.4038 152.125C87.3185 152.528 87.1438 152.881 86.8796 153.182C86.6183 153.48 86.2802 153.713 85.8654 153.881C85.4535 154.045 84.9776 154.128 84.4379 154.128ZM91.6097 154.128C90.9364 154.128 90.3569 153.991 89.8711 153.719C89.3881 153.443 89.016 153.054 88.7546 152.551C88.4933 152.045 88.3626 151.447 88.3626 150.757C88.3626 150.084 88.4933 149.493 88.7546 148.984C89.016 148.476 89.3839 148.08 89.8583 147.795C90.3356 147.511 90.8952 147.369 91.5373 147.369C91.9691 147.369 92.3711 147.439 92.7433 147.578C93.1183 147.714 93.445 147.92 93.7234 148.196C94.0046 148.472 94.2234 148.818 94.3796 149.236C94.5359 149.651 94.614 150.136 94.614 150.693V151.192H89.087V150.067H92.9052C92.9052 149.805 92.8484 149.574 92.7347 149.372C92.6211 149.17 92.4634 149.013 92.2617 148.899C92.0629 148.783 91.8313 148.724 91.5671 148.724C91.2915 148.724 91.0472 148.788 90.8342 148.916C90.6239 149.041 90.4592 149.21 90.3398 149.423C90.2205 149.634 90.1594 149.868 90.1566 150.126V151.196C90.1566 151.52 90.2163 151.8 90.3356 152.036C90.4577 152.271 90.6296 152.453 90.8512 152.581C91.0728 152.709 91.3356 152.773 91.6396 152.773C91.8413 152.773 92.0259 152.744 92.1935 152.688C92.3612 152.631 92.5046 152.545 92.6239 152.432C92.7433 152.318 92.8342 152.179 92.8967 152.014L94.5756 152.125C94.4904 152.528 94.3157 152.881 94.0515 153.182C93.7901 153.48 93.4521 153.713 93.0373 153.881C92.6254 154.045 92.1495 154.128 91.6097 154.128ZM95.7987 156.455V147.455H97.5884V148.554H97.6694C97.7489 148.378 97.864 148.199 98.0146 148.017C98.168 147.832 98.3668 147.679 98.6112 147.557C98.8583 147.432 99.1651 147.369 99.5316 147.369C100.009 147.369 100.449 147.494 100.853 147.744C101.256 147.991 101.578 148.365 101.82 148.865C102.061 149.362 102.182 149.986 102.182 150.736C102.182 151.466 102.064 152.082 101.828 152.585C101.596 153.085 101.277 153.464 100.874 153.723C100.473 153.979 100.025 154.107 99.5273 154.107C99.1751 154.107 98.8754 154.048 98.6282 153.932C98.3839 153.815 98.1836 153.669 98.0273 153.493C97.8711 153.314 97.7518 153.134 97.6694 152.952H97.614V156.455H95.7987ZM97.5756 150.727C97.5756 151.116 97.6296 151.456 97.7376 151.746C97.8455 152.036 98.0018 152.261 98.2063 152.423C98.4109 152.582 98.6594 152.662 98.9521 152.662C99.2475 152.662 99.4975 152.581 99.7021 152.419C99.9066 152.254 100.061 152.027 100.167 151.737C100.275 151.445 100.328 151.108 100.328 150.727C100.328 150.349 100.276 150.017 100.171 149.73C100.066 149.443 99.9109 149.219 99.7063 149.057C99.5018 148.895 99.2504 148.814 98.9521 148.814C98.6566 148.814 98.4066 148.892 98.2021 149.048C98.0004 149.205 97.8455 149.426 97.7376 149.713C97.6296 150 97.5756 150.338 97.5756 150.727ZM106.204 154V145.273H108.049V152.479H111.79V154H106.204ZM115.961 154.128C115.288 154.128 114.708 153.991 114.223 153.719C113.74 153.443 113.368 153.054 113.106 152.551C112.845 152.045 112.714 151.447 112.714 150.757C112.714 150.084 112.845 149.493 113.106 148.984C113.368 148.476 113.735 148.08 114.21 147.795C114.687 147.511 115.247 147.369 115.889 147.369C116.321 147.369 116.723 147.439 117.095 147.578C117.47 147.714 117.797 147.92 118.075 148.196C118.356 148.472 118.575 148.818 118.731 149.236C118.887 149.651 118.966 150.136 118.966 150.693V151.192H113.439V150.067H117.257C117.257 149.805 117.2 149.574 117.086 149.372C116.973 149.17 116.815 149.013 116.613 148.899C116.414 148.783 116.183 148.724 115.919 148.724C115.643 148.724 115.399 148.788 115.186 148.916C114.975 149.041 114.811 149.21 114.691 149.423C114.572 149.634 114.511 149.868 114.508 150.126V151.196C114.508 151.52 114.568 151.8 114.687 152.036C114.809 152.271 114.981 152.453 115.203 152.581C115.424 152.709 115.687 152.773 115.991 152.773C116.193 152.773 116.377 152.744 116.545 152.688C116.713 152.631 116.856 152.545 116.975 152.432C117.095 152.318 117.186 152.179 117.248 152.014L118.927 152.125C118.842 152.528 118.667 152.881 118.403 153.182C118.142 153.48 117.804 153.713 117.389 153.881C116.977 154.045 116.501 154.128 115.961 154.128ZM122.017 154.124C121.599 154.124 121.227 154.051 120.9 153.906C120.574 153.759 120.315 153.541 120.125 153.254C119.937 152.964 119.843 152.604 119.843 152.172C119.843 151.808 119.91 151.503 120.044 151.256C120.177 151.009 120.359 150.81 120.589 150.659C120.819 150.509 121.081 150.395 121.373 150.318C121.669 150.241 121.978 150.188 122.302 150.156C122.683 150.116 122.99 150.08 123.223 150.045C123.456 150.009 123.625 149.955 123.73 149.884C123.835 149.812 123.887 149.707 123.887 149.568V149.543C123.887 149.273 123.802 149.064 123.632 148.916C123.464 148.768 123.225 148.695 122.916 148.695C122.589 148.695 122.329 148.767 122.136 148.912C121.943 149.054 121.815 149.233 121.752 149.449L120.074 149.312C120.159 148.915 120.326 148.571 120.576 148.281C120.826 147.989 121.149 147.764 121.544 147.608C121.941 147.449 122.402 147.369 122.924 147.369C123.288 147.369 123.636 147.412 123.968 147.497C124.304 147.582 124.6 147.714 124.859 147.893C125.12 148.072 125.326 148.303 125.477 148.584C125.627 148.862 125.703 149.196 125.703 149.585V154H123.981V153.092H123.93C123.825 153.297 123.684 153.477 123.508 153.634C123.332 153.787 123.12 153.908 122.873 153.996C122.626 154.081 122.341 154.124 122.017 154.124ZM122.537 152.871C122.804 152.871 123.039 152.818 123.244 152.713C123.449 152.605 123.609 152.46 123.725 152.278C123.842 152.097 123.9 151.891 123.9 151.661V150.966C123.843 151.003 123.765 151.037 123.666 151.068C123.569 151.097 123.46 151.124 123.338 151.149C123.216 151.172 123.093 151.193 122.971 151.213C122.849 151.23 122.738 151.246 122.639 151.26C122.426 151.291 122.24 151.341 122.081 151.409C121.922 151.477 121.798 151.57 121.71 151.686C121.622 151.8 121.578 151.942 121.578 152.112C121.578 152.359 121.667 152.548 121.846 152.679C122.028 152.807 122.258 152.871 122.537 152.871ZM127.111 154V147.455H128.871V148.597H128.939C129.059 148.19 129.259 147.884 129.54 147.676C129.821 147.466 130.145 147.361 130.512 147.361C130.603 147.361 130.701 147.366 130.806 147.378C130.911 147.389 131.003 147.405 131.083 147.425V149.036C130.998 149.01 130.88 148.987 130.729 148.967C130.578 148.947 130.441 148.938 130.316 148.938C130.049 148.938 129.81 148.996 129.6 149.112C129.392 149.226 129.228 149.385 129.105 149.589C128.986 149.794 128.926 150.03 128.926 150.297V154H127.111ZM133.837 150.216V154H132.021V147.455H133.751V148.609H133.828C133.973 148.229 134.216 147.928 134.557 147.706C134.898 147.482 135.311 147.369 135.797 147.369C136.251 147.369 136.648 147.469 136.986 147.668C137.324 147.866 137.587 148.151 137.774 148.52C137.962 148.886 138.055 149.324 138.055 149.832V154H136.24V150.156C136.243 149.756 136.141 149.443 135.933 149.219C135.726 148.991 135.44 148.878 135.077 148.878C134.832 148.878 134.616 148.93 134.429 149.036C134.244 149.141 134.099 149.294 133.994 149.496C133.892 149.695 133.839 149.935 133.837 150.216ZM139.486 154V147.455H141.301V154H139.486ZM140.398 146.611C140.128 146.611 139.897 146.521 139.703 146.342C139.513 146.161 139.418 145.943 139.418 145.69C139.418 145.44 139.513 145.226 139.703 145.047C139.897 144.865 140.128 144.774 140.398 144.774C140.668 144.774 140.898 144.865 141.088 145.047C141.282 145.226 141.378 145.44 141.378 145.69C141.378 145.943 141.282 146.161 141.088 146.342C140.898 146.521 140.668 146.611 140.398 146.611ZM144.571 150.216V154H142.756V147.455H144.486V148.609H144.562C144.707 148.229 144.95 147.928 145.291 147.706C145.632 147.482 146.045 147.369 146.531 147.369C146.986 147.369 147.382 147.469 147.72 147.668C148.058 147.866 148.321 148.151 148.509 148.52C148.696 148.886 148.79 149.324 148.79 149.832V154H146.974V150.156C146.977 149.756 146.875 149.443 146.668 149.219C146.46 148.991 146.175 148.878 145.811 148.878C145.567 148.878 145.351 148.93 145.163 149.036C144.979 149.141 144.834 149.294 144.729 149.496C144.626 149.695 144.574 149.935 144.571 150.216ZM153.169 156.591C152.581 156.591 152.077 156.51 151.657 156.348C151.239 156.189 150.907 155.972 150.659 155.696C150.412 155.42 150.252 155.111 150.178 154.767L151.857 154.541C151.908 154.672 151.989 154.794 152.1 154.908C152.211 155.021 152.357 155.112 152.539 155.18C152.723 155.251 152.948 155.287 153.212 155.287C153.607 155.287 153.932 155.19 154.188 154.997C154.446 154.807 154.576 154.487 154.576 154.038V152.841H154.499C154.419 153.023 154.3 153.195 154.141 153.357C153.982 153.518 153.777 153.651 153.527 153.753C153.277 153.855 152.979 153.906 152.632 153.906C152.141 153.906 151.694 153.793 151.29 153.565C150.89 153.335 150.57 152.984 150.331 152.513C150.096 152.038 149.978 151.439 149.978 150.714C149.978 149.973 150.098 149.354 150.34 148.857C150.581 148.359 150.902 147.987 151.303 147.74C151.706 147.493 152.148 147.369 152.628 147.369C152.995 147.369 153.301 147.432 153.549 147.557C153.796 147.679 153.995 147.832 154.145 148.017C154.299 148.199 154.417 148.378 154.499 148.554H154.567V147.455H156.37V154.064C156.37 154.621 156.233 155.087 155.961 155.462C155.688 155.837 155.31 156.118 154.827 156.305C154.347 156.496 153.794 156.591 153.169 156.591ZM153.208 152.543C153.5 152.543 153.748 152.47 153.949 152.325C154.154 152.178 154.31 151.967 154.418 151.695C154.529 151.419 154.584 151.089 154.584 150.706C154.584 150.322 154.53 149.99 154.422 149.709C154.314 149.425 154.158 149.205 153.953 149.048C153.749 148.892 153.5 148.814 153.208 148.814C152.909 148.814 152.658 148.895 152.453 149.057C152.249 149.216 152.094 149.437 151.989 149.722C151.884 150.006 151.831 150.334 151.831 150.706C151.831 151.084 151.884 151.411 151.989 151.686C152.097 151.959 152.252 152.17 152.453 152.321C152.658 152.469 152.909 152.543 153.208 152.543Z" fill="#F5F5F5"/>
</svg>
